<svg height="480pt" viewBox="0 -40 480.03675 480" width="480pt" xmlns="http://www.w3.org/2000/svg"><path d="m448.019531.0351562h-416c-8.574219-.2929682-16.886719 2.9843748-22.953125 9.0507818-6.066406 6.066406-9.34375 14.375-9.0468748 22.949218v336c-.2968752 8.574219 2.9804688 16.886719 9.0468748 22.953125 6.066406 6.066407 14.378906 9.34375 22.953125 9.046875h416c8.574219.296875 16.886719-2.980468 22.953125-9.046875 6.066406-6.066406 9.339844-14.378906 9.046875-22.953125v-336c.292969-8.574218-2.980469-16.882812-9.046875-22.949218-6.066406-6.066407-14.378906-9.34375-22.953125-9.0507818zm16 367.9999998c.300781 4.332032-1.289062 8.578125-4.355469 11.648438-3.070312 3.066406-7.316406 4.65625-11.644531 4.351562h-416c-4.332031.304688-8.578125-1.285156-11.648437-4.351562-3.066406-3.070313-4.65625-7.316406-4.351563-11.648438v-288h448zm-448-304v-32c-.304687-4.328125 1.285157-8.574218 4.351563-11.644531 3.070312-3.066406 7.316406-4.65625 11.648437-4.355469h416c4.328125-.300781 8.574219 1.289063 11.644531 4.355469 3.066407 3.070313 4.65625 7.316406 4.355469 11.644531v32zm0 0"/><path d="m432.019531 32.035156h16v16h-16zm0 0"/><path d="m32.019531 32.035156h16v16h-16zm0 0"/><path d="m64.019531 32.035156h16v16h-16zm0 0"/><path d="m96.019531 32.035156h16v16h-16zm0 0"/><path d="m154.363281 317.691406 11.3125-11.3125-74.34375-74.34375 74.34375-74.34375-11.3125-11.3125-80 80c-3.125 3.125-3.125 8.191406 0 11.3125zm0 0"/><path d="m325.675781 317.691406 80-80c3.121094-3.121094 3.121094-8.1875 0-11.3125l-80-80-11.3125 11.3125 74.34375 74.34375-74.34375 74.34375zm0 0"/><path d="m192.867188 308.457031 80-160.003906 14.308593 7.15625-80 160.003906zm0 0"/></svg>